<svg width="785" height="716" viewBox="0 0 785 716" fill="none" xmlns="http://www.w3.org/2000/svg">
<mask id="mask0_127_1169" style="mask-type:alpha" maskUnits="userSpaceOnUse" x="0" y="0" width="785" height="716">
<rect width="785" height="716" rx="15" transform="matrix(-1 0 0 1 785 0)" fill="white"/>
</mask>
<g mask="url(#mask0_127_1169)">
<path fill-rule="evenodd" clip-rule="evenodd" d="M637.962 398.031C615.681 401.783 599.943 394.728 591.826 393.115C589.465 392.665 579.028 396.867 562.545 396.867C557.815 396.649 553.181 395.578 548.914 393.716C544.647 391.853 540.833 389.238 537.696 386.023C537.158 385.46 538.152 384.747 538.69 385.31C545.079 391.01 553.662 394.239 562.628 394.316C571.346 393.973 579.991 392.713 588.388 390.563C594.062 389.4 593.192 390.826 607.563 394.316C617.38 396.738 627.635 397.338 637.713 396.079C650.469 394.428 652.871 391.839 653.41 393.152C653.465 393.297 653.457 393.455 653.388 393.595C653.318 393.734 653.193 393.844 653.037 393.903C648.167 395.706 643.119 397.088 637.962 398.031ZM346.774 347.371C328.51 346.058 313.642 331.461 315.008 322.642C314.983 322.554 314.981 322.461 315.002 322.371C315.022 322.282 315.065 322.198 315.127 322.125C315.189 322.053 315.268 321.994 315.359 321.954C315.45 321.914 315.549 321.893 315.65 321.893C315.751 321.893 315.851 321.914 315.942 321.954C316.033 321.994 316.112 322.053 316.174 322.125C316.236 322.198 316.279 322.282 316.299 322.371C316.32 322.461 316.317 322.554 316.292 322.642C316.955 326.096 318.777 329.28 321.511 331.761C327.212 337.482 334.3 341.926 342.218 344.745C347.064 346.508 347.768 346.021 347.602 346.884C347.595 346.97 347.566 347.054 347.517 347.128C347.468 347.203 347.401 347.266 347.321 347.313C347.241 347.361 347.15 347.39 347.055 347.4C346.96 347.41 346.864 347.401 346.774 347.371ZM699.297 410.001C699.138 409.951 699.007 409.846 698.933 409.709C698.86 409.572 698.849 409.414 698.904 409.269C698.959 409.125 699.075 409.007 699.226 408.94C699.378 408.873 699.552 408.863 699.711 408.913C709.919 410.916 720.482 410.916 730.69 408.913C735.08 407.9 735.328 407.074 735.784 407.825C735.864 407.956 735.887 408.109 735.849 408.255C735.811 408.401 735.714 408.529 735.577 408.613C725.927 414.917 709.817 414.654 699.297 410.001ZM192.752 135.691C191.385 136.104 192.752 134.415 185.918 123.383C172.044 100.605 147.112 80.6418 121.808 67.8456C111.579 62.6671 110.709 63.1925 111.123 62.2544C111.203 62.117 111.335 62.0108 111.495 61.9555C111.655 61.9002 111.832 61.8998 111.993 61.9542C154.194 76.9643 184.676 108.11 193.166 134.941C193.198 135.014 193.213 135.093 193.209 135.173C193.205 135.252 193.183 135.329 193.144 135.4C193.105 135.471 193.05 135.533 192.982 135.584C192.915 135.634 192.836 135.671 192.752 135.691ZM69.2525 165.599C87.5993 153.141 116.673 147.174 139.658 144.622C155.008 142.77 170.541 142.493 185.96 143.797C186.047 143.802 186.132 143.822 186.21 143.857C186.289 143.891 186.359 143.94 186.417 143.999C186.474 144.058 186.518 144.127 186.547 144.202C186.575 144.277 186.587 144.356 186.581 144.435C186.581 145.448 186.332 144.435 171.506 144.96C141.107 145.936 93.4802 152.465 70.1636 166.537C69.2939 166.95 68.5485 166.012 69.2525 165.599ZM212.382 361.931C215.07 363.155 217.946 364.003 220.914 364.445C220.99 364.413 221.072 364.395 221.156 364.392C221.24 364.389 221.324 364.401 221.403 364.427C221.482 364.453 221.554 364.493 221.616 364.544C221.677 364.596 221.727 364.658 221.763 364.727C221.798 364.796 221.818 364.871 221.822 364.947C221.825 365.023 221.812 365.098 221.783 365.17C221.755 365.241 221.71 365.307 221.654 365.363C221.597 365.419 221.528 365.464 221.452 365.496C220.629 366.04 219.676 366.402 218.671 366.553C217.665 366.705 216.635 366.641 215.662 366.368C214.688 366.094 213.799 365.619 213.064 364.979C212.329 364.339 211.77 363.552 211.43 362.682C211.32 362.567 211.265 362.418 211.276 362.267C211.288 362.115 211.366 361.975 211.492 361.875C211.618 361.775 211.783 361.725 211.95 361.736C212.117 361.747 212.273 361.817 212.382 361.931ZM721.33 527.23C729.157 527.868 727.791 530.983 719.963 530.007C712.136 529.031 716.319 526.817 721.33 527.23ZM598.659 513.271C599.482 513.328 600.299 513.441 601.103 513.608C605.575 514.734 604.581 516.123 600.15 516.198C591.536 516.235 591.039 512.745 598.659 513.271ZM725.554 608.585C728.95 608.585 733.258 610.274 727.625 611.324C726.252 611.508 724.857 611.508 723.484 611.324C717.644 610.048 722.49 608.51 725.554 608.585ZM604.996 588.434C611.415 588.697 608.847 590.911 604.996 591.248C598.286 591.886 596.63 588.134 604.996 588.434ZM484.23 643.484C492.513 643.859 485.472 646.861 480.088 646.298C474.704 645.735 476.32 643.108 484.23 643.484ZM357.914 614.439C366.197 614.139 363.257 617.403 357.169 617.366C352.406 617.328 350.791 614.777 357.914 614.439ZM220.127 658.156C225.552 658.156 228.783 660.22 222.695 660.97C220.96 661.138 219.211 661.138 217.476 660.97C211.181 659.845 215.281 658.081 220.127 658.156ZM120.276 564.042C111.247 564.718 111.04 561.641 120.276 561.153C130.257 560.59 126.943 563.555 120.276 564.042ZM57.9048 546.481C60.4725 546.856 62.0463 548.169 58.6917 549.032C57.0469 549.407 55.3253 549.407 53.6804 549.032C48.7106 547.231 54.0532 545.918 57.9048 546.481ZM632.868 161.884C627.169 161.874 621.528 160.844 616.27 158.852C611.012 156.86 606.241 153.946 602.23 150.277C598.22 146.608 595.049 142.257 592.901 137.474C590.753 132.692 589.67 127.571 589.714 122.407C590.061 112.242 594.762 102.598 602.821 95.5186C610.88 88.4392 621.664 84.4803 632.889 84.4803C644.113 84.4803 654.897 88.4392 662.956 95.5186C671.015 102.598 675.716 112.242 676.064 122.407C676.107 127.574 675.023 132.698 672.872 137.483C670.721 142.268 667.547 146.621 663.532 150.29C659.517 153.959 654.741 156.873 649.478 158.863C644.215 160.852 638.57 161.879 632.868 161.884ZM661.651 96.2523C657.966 92.6776 653.51 89.8275 648.558 87.8789C643.607 85.9302 638.266 84.9247 632.868 84.9247C627.469 84.9247 622.129 85.9302 617.177 87.8789C612.226 89.8275 607.769 92.6776 604.085 96.2523C596.626 103.241 592.484 112.597 592.546 122.319C592.608 132.04 596.869 141.353 604.416 148.262C608.142 151.664 612.575 154.363 617.458 156.206C622.341 158.048 627.578 158.996 632.868 158.996C638.157 158.996 643.395 158.048 648.278 156.206C653.161 154.363 657.593 151.664 661.32 148.262C668.867 141.353 673.128 132.04 673.19 122.319C673.252 112.597 669.11 103.241 661.651 96.2523ZM192.13 138.281L192.172 138.206V138.243L192.13 138.281ZM298.484 199.897C298.484 199.897 287.84 193.18 286.971 192.58C282.456 189.428 276.907 186.275 272.475 183.686C260.672 176.819 261.128 176.181 245.349 168.263C240.793 165.937 202.319 147.062 198.964 145.26C198.832 145.176 198.738 145.051 198.701 144.908C198.663 144.765 198.685 144.615 198.761 144.486C198.838 144.356 198.964 144.257 199.115 144.206C199.267 144.155 199.434 144.156 199.585 144.21C214.784 151.302 244.355 162.672 266.346 176.631C273.937 181.099 281.277 185.908 288.337 191.041C292.293 193.715 296.094 196.57 299.726 199.597C299.729 199.731 299.682 199.862 299.593 199.969C299.503 200.075 299.377 200.152 299.235 200.187C299.092 200.221 298.94 200.211 298.804 200.159C298.668 200.107 298.555 200.014 298.484 199.897ZM355.015 415.78C352.348 417.067 349.381 417.761 346.36 417.806C345.034 417.806 344.165 416.943 343.875 415.18C343.584 413.401 343.584 411.593 343.875 409.814C345.283 401.333 348.016 403.397 347.395 404.297C350.046 404.935 358.908 413.941 355.015 415.78ZM347.146 405.611C347.101 405.628 347.051 405.637 347.001 405.637C346.952 405.637 346.902 405.628 346.857 405.611C346.518 408.718 346.518 411.847 346.857 414.955C348.845 414.67 350.79 414.179 352.655 413.491C351.24 410.641 349.385 407.988 347.146 405.611Z" fill="#E4E4E4" fill-opacity="0.5"/>
<path fill-rule="evenodd" clip-rule="evenodd" d="M127.978 182.259L118.329 173.516L113.566 185.411C113.235 186.237 116.631 184.811 66.7256 203.536C65.9387 203.836 66.4357 203.836 54.3011 199.784C52.6446 212.58 52.8102 212.355 52.2718 212.88C48.9586 216.07 22.8672 241.174 19.1399 244.064C12.0579 249.73 -3.43121 209.728 11.4367 188.451C41.5867 145.485 79.8542 132.613 135.267 128.973C146.201 128.298 170.553 132.238 181.362 134.114C157.093 121.619 158.17 122.669 158.253 121.731L159.039 111.787L148.769 112.988C148.106 112.988 152.372 115.614 82.9603 73.6237C81.9663 73.0233 82.2148 73.6237 82.2148 61.8032C72.5237 60.1521 71.3226 60.002 70.9085 59.8519C67.264 58.4635 38.6463 47.8063 35.4573 45.7049C35.0656 45.4931 34.7784 45.1532 34.6551 44.7552C34.5318 44.3572 34.5818 43.9315 34.7947 43.5659C46.1838 25.4037 63.2054 24.2779 85.5694 27.8804C127.647 34.5974 155.064 59.1389 181.776 89.0466C189.913 98.9045 194.951 110.575 196.354 122.819C212.547 98.1277 240.295 89.3092 268.913 78.8022C311.032 63.3793 404.878 62.4411 443.643 87.0577C461.837 98.2553 476.462 113.59 486.051 131.525C486.383 132.126 486.466 133.439 484.519 133.927C477.603 135.653 415.605 133.927 408.399 133.927C407.405 133.927 407.363 133.289 398.914 127.548C398.335 129.536 397.631 132.501 397.258 134.302C397.18 134.633 396.974 134.928 396.679 135.134C396.383 135.34 396.016 135.444 395.643 135.428C331.035 133.064 334.97 133.401 334.349 132.801C334.349 132.801 327.515 125.784 324.409 123.007C324.013 124.053 323.681 125.117 323.415 126.197C321.634 133.289 322.545 134.302 321.096 134.715C308.092 138.467 280.426 145.972 266.677 148.899C307.512 160.682 331.864 173.629 356.92 205.825C366.033 218.405 373.144 232.086 378.041 246.465C381.079 246.193 384.133 246.825 386.739 248.266C388.519 249.355 387.898 252.019 387.236 253.858C392.33 252.957 395.104 255.096 393.406 259.787C392.04 263.539 387.691 268.755 387.691 271.419C387.981 271.044 388.685 269.993 388.851 269.806C393.037 266.901 398.252 265.486 403.512 265.828C408.647 265.828 412.83 270.556 416.226 272.77C412.954 263.464 418.876 258.06 433.62 270.631C433.293 269.785 433.194 268.881 433.331 267.993C433.468 267.106 433.837 266.26 434.407 265.528C438.549 261.775 448.488 270.106 452.505 272.283C452.505 270.744 451.222 267.517 454.949 265.828C460.954 263.089 465.22 268.643 468.906 273.333C470.314 268.117 477.603 266.954 483.111 268.943C486.341 270.411 488.859 272.908 490.181 275.956C491.504 279.003 491.537 282.385 490.276 285.454C496.447 282.527 503.777 280.613 504.067 286.917C504.08 288.523 503.872 290.124 503.446 291.683C506.345 290.032 510.818 287.931 513.882 289.319C519.68 291.983 518.024 297.349 514.711 302.378C550.949 302.378 769.288 306.13 788.049 307.068C788.395 307.142 788.703 307.319 788.923 307.571C789.144 307.823 789.264 308.135 789.264 308.457C789.264 308.779 789.144 309.091 788.923 309.343C788.703 309.595 788.395 309.772 788.049 309.845C606.817 307.819 280.054 306.093 278.356 306.956C249.365 325.193 302.79 373.563 339.815 380.993C351.433 373.505 363.489 366.59 375.929 360.279C376.965 359.792 377.172 361.368 377.337 362.418C377.503 363.469 377.669 364.595 377.834 366.171C388.497 356.091 401.137 347.896 415.108 342.004C442.69 331.422 460.664 339.941 476.195 362.606C482.864 372.98 488.411 383.913 492.761 395.253C496.512 405.255 499.691 415.425 502.286 425.723C508.953 426.945 515.798 427.148 522.538 426.324C538.027 424.56 560.474 419.232 565.071 420.62C573.934 423.322 581.264 429.926 590.458 432.703C605.169 437.31 620.76 439.154 636.283 438.121C651.805 437.089 666.933 433.203 680.743 426.699C684.884 424.898 711.224 432.403 717.188 433.529C731.932 436.23 769.495 427.825 791.031 413.265C791.169 413.204 791.326 413.188 791.475 413.22C791.625 413.252 791.757 413.33 791.85 413.441C791.943 413.552 791.991 413.688 791.985 413.827C791.979 413.966 791.92 414.099 791.818 414.203C769.951 429.213 732.097 437.844 716.815 435.142C713.088 434.467 684.512 427.074 681.695 428.35C667.647 435.054 652.238 439.093 636.409 440.222C620.58 441.352 604.663 439.546 589.63 434.917C580.022 432.028 573.064 425.573 564.201 422.947C560.681 421.896 537.447 427.187 522.786 428.876C516.167 429.745 509.434 429.605 502.866 428.463C504.688 435.63 510.735 460.659 511.149 465.575C511.198 465.832 511.187 466.095 511.115 466.347C511.044 466.6 510.914 466.835 510.735 467.039C510.031 467.639 508.705 467.677 499.925 467.827C502.162 480.21 501.955 479.272 502.949 480.398C507.354 484.509 512.073 488.333 517.071 491.843C520.177 494.17 524.153 498.185 522.372 501.487C521.296 503.401 518.604 503.513 516.243 503.326C516.243 504.339 516.243 506.29 515.166 506.553C513.344 506.928 495.453 506.778 492.388 506.74L489.199 510.493C493.796 517.248 524.526 563.366 523.78 571.209C523.532 573.535 518.521 574.774 515.787 575.449C516.326 576.725 516.864 578.001 517.361 578.977C517.858 579.952 517.775 579.99 517.982 580.29C518.189 580.59 533.803 584.043 540.885 588.696C545.523 591.698 545.026 594.925 542.541 596.201C535.749 599.766 498.393 599.015 496.322 597.026C493.589 594.4 491.477 583.255 490.773 579.652C487.861 580.154 484.862 580.064 481.993 579.389C468.333 569.34 455.642 558.255 444.057 546.255C439.253 548.919 434.159 551.471 428.775 553.76C432.916 558 477.271 602.805 477.727 606.07C478.348 610.16 465.303 614.701 461.451 612.562C460.291 611.886 457.31 608.809 410.801 560.439C402.15 563.093 393.25 565.028 384.212 566.218C369.904 568.082 355.472 569.06 341.016 569.145C324.699 577.25 304.986 586.97 292.395 593.124C341.679 648.361 339.318 645.471 339.318 646.522C339.318 648.511 336.047 650.537 334.183 651.588C332.319 652.639 328.758 654.215 326.811 653.277C323.954 651.851 279.805 602.73 277.61 600.291C254.004 611.549 233.959 621.08 228.658 623.444C226.96 624.232 225.552 622.694 224.516 621.23C223.251 619.343 222.17 617.359 221.286 615.301C221.168 614.984 221.173 614.639 221.301 614.325C221.429 614.011 221.672 613.746 221.99 613.575L268.416 590.122L239.964 558.675L100.562 628.81C100.218 628.944 99.8384 628.984 99.4701 628.924C99.1019 628.864 98.7612 628.707 98.4908 628.473C95.9215 625.394 93.8054 622.026 92.1957 618.453C91.6988 617.065 92.5271 616.577 93.5624 615.977C93.7695 615.977 176.144 573.873 229.279 546.855L199.833 514.208C192.715 514.478 185.617 513.342 179.03 510.88C172.444 508.418 166.528 504.688 161.69 499.948C161.276 504.301 160.986 507.754 160.779 510.155C160.742 510.284 160.659 510.399 160.543 510.481C160.427 510.562 160.284 510.607 160.137 510.607C159.99 510.607 159.847 510.562 159.731 510.481C159.614 510.399 159.531 510.284 159.495 510.155C159.743 506.403 160.033 502.65 160.323 498.673C149.514 487.415 145.165 470.716 145 455.744C140.654 455.008 136.365 454.018 132.161 452.779C131.996 452.779 131.838 452.72 131.722 452.614C131.605 452.509 131.54 452.366 131.54 452.216C131.54 452.067 131.605 451.924 131.722 451.818C131.838 451.713 131.996 451.653 132.161 451.653C136.19 451.701 140.207 452.052 144.171 452.704C127.026 433.679 97.207 400.169 92.1544 394.315C79.7299 460.059 78.9016 509.93 77.3278 514.396C77.3278 515.184 76.0854 515.784 76.0854 513.908C76.0668 513.808 76.0668 513.707 76.0854 513.608C78.1147 494.395 79.5228 450.378 90.0422 391.913C53.3073 349.997 54.9224 351.161 55.7507 349.96C57.4072 347.671 64.0337 345.682 68.6721 345.532C69.1277 345.532 68.2994 344.744 79.1087 356.789C83.5401 355.739 90.0836 354.538 97.9111 353.262C101.307 338.252 105.117 323.505 109.507 308.232C18.0217 310.183 22.9501 310.521 22.246 309.47L17.7318 309.845C17.6339 309.868 17.5317 309.87 17.4327 309.852C17.3339 309.833 17.241 309.794 17.1611 309.738C17.0814 309.682 17.0167 309.61 16.9724 309.528C16.9279 309.446 16.9048 309.355 16.9048 309.264C16.9048 309.172 16.9279 309.082 16.9724 309C17.0167 308.917 17.0814 308.846 17.1611 308.789C17.241 308.733 17.3339 308.694 17.4327 308.676C17.5317 308.657 17.6339 308.659 17.7318 308.682L22.2875 308.307C22.0804 302.866 22.9501 297.387 28.624 295.511C25.1036 293.935 19.347 291.758 21.7076 287.743C24.0683 283.728 29.9906 288.006 32.3513 287.743C32.7654 285.266 28.2098 277.273 36.4927 275.397C39.5212 275.378 42.5486 275.503 45.5626 275.772C44.0303 273.258 41.007 268.793 41.4211 266.053C41.7939 264.29 43.4504 262.901 47.9647 263.914C48.8758 264.14 52.1062 265.303 54.384 265.828C53.9226 265.217 53.5339 264.563 53.2244 263.877C52.4374 260.475 53.1191 256.93 55.1295 253.97C59.9336 247.478 66.9327 252.469 72.7722 254.908C71.683 253.193 71.0851 251.258 71.0328 249.28C71.2398 245.752 75.6298 244.927 79.3157 245.902C82.3601 246.942 85.3096 248.197 88.1371 249.655C86.9297 248.119 86.4042 246.229 86.6652 244.358C86.926 242.488 87.9542 240.775 89.5452 239.56C92.0715 238.059 98.4495 239.56 101.349 240.574C97.207 233.894 98.6979 228.153 102.094 225.076C105.49 221.999 113.317 224.7 116.796 224.4C115.92 223.303 115.158 222.135 114.518 220.91C113.732 217.557 114.415 214.059 116.424 211.154C116.862 210.526 117.476 210.015 118.204 209.672C118.931 209.329 119.746 209.167 120.565 209.203C124.706 209.203 131.788 214.156 132.989 212.955C134.19 211.754 132.989 207.476 137.131 205.45C141.272 203.424 146.118 204.775 146.118 211.266C153.2 196.256 160.075 183.723 166.246 173.366C125.825 183.498 128.724 183.01 127.978 182.259ZM498.145 595.037C502.783 596.013 536.826 596.201 541.34 593.461C542.914 590.009 520.136 583.33 517.237 581.941C516.036 581.341 514.876 577.626 514.255 575.712C507.052 577.401 499.733 578.654 492.346 579.464C493.299 582.166 496.24 592.861 498.145 595.037ZM179.995 90.3224C153.283 61.2028 125.825 37.0741 85.031 30.6572C64.7377 27.4676 49.0414 27.8804 38.315 43.8661C43.8232 46.568 66.1458 55.1237 71.9439 57.1501L84.037 59.2515C84.392 59.3187 84.7117 59.4923 84.9446 59.7441C85.1774 59.996 85.31 60.3115 85.3209 60.6399V71.7099L148.934 110.961C160.82 109.723 160.448 109.61 160.986 110.061C161.524 110.511 161.4 110.061 160.323 121.318C163.139 122.819 176.227 129.686 185.918 134.902C196.396 136.779 193.994 136.554 195.899 136.366C195.816 120.455 191.26 102.593 179.995 90.3224ZM319.481 132.538C319.925 128.356 320.969 124.243 322.587 120.305C322.684 120.131 322.825 119.98 322.997 119.863C323.169 119.746 323.369 119.666 323.581 119.63C324.533 119.63 325.279 120.193 326.066 120.868C328.716 123.157 334.349 128.936 336.088 130.512L394.483 132.463C394.856 130.775 395.891 126.384 396.512 124.733C396.584 124.527 396.707 124.338 396.871 124.181C397.036 124.025 397.237 123.904 397.46 123.828C397.684 123.752 397.923 123.723 398.161 123.743C398.399 123.764 398.628 123.833 398.832 123.945C400.116 124.545 407.86 130.137 409.02 130.962C419.746 131.263 471.763 132.501 482.366 131.338C472.986 114.501 459.051 100.094 441.862 89.4594C404.63 65.931 311.778 65.931 269.866 80.9411C240.544 91.4482 212.755 99.9289 196.644 125.258C197.091 128.909 197.312 132.58 197.307 136.253C201.241 135.991 198.508 136.816 205.134 132.764C242.408 109.986 327.06 86.1196 369.883 97.6023C370.045 97.6461 370.182 97.7443 370.267 97.8769C370.351 98.0094 370.377 98.1663 370.338 98.3153C369.676 100.454 356.216 91.223 301.921 101.768C270.735 107.772 228.906 120.83 203.643 135.991C222.901 135.728 237.355 140.531 262.742 147.624C275.374 145.072 307.222 136.066 319.481 132.538ZM354.435 207.289C326.687 171.302 299.353 159.744 252.679 146.911C238.225 142.895 222.321 137.454 207.122 137.379C202.278 137.189 197.424 137.415 192.627 138.055C192.627 138.055 191.881 138.055 192.006 138.28C191.367 144.107 192.439 149.984 195.112 155.316C198.789 163.517 203.786 171.18 209.938 178.057C226.049 196.819 232.841 203.874 255.205 216.858C257.565 216.407 266.387 214.156 268.623 213.555C268.826 213.505 269.039 213.496 269.247 213.53C269.454 213.563 269.65 213.639 269.821 213.75C269.992 213.862 270.133 214.007 270.234 214.175C270.335 214.342 270.393 214.528 270.404 214.719L271.605 231.042C286.804 236.633 316.457 248.604 328.633 258.436C332.775 249.617 333.23 244.814 335.715 244.814C337.289 244.814 337.289 245.039 342.135 262.901C348.388 265.565 374.563 276.598 381.437 277.499C383.55 271.795 373.9 232.318 354.435 207.289ZM198.135 199.108C202.277 197.307 208.613 200.309 212.382 202.373C210.725 199.709 208.24 195.281 211.471 193.892C215.314 193.012 219.384 193.524 222.818 195.318C218.47 190.778 214.038 185.637 208.53 179.107C203.913 173.711 199.917 167.902 196.603 161.771C195.816 170.064 194.284 185.374 192.254 205.15C194.363 205.204 196.431 205.691 198.301 206.576C197.058 204.775 193.911 201.022 198.135 199.108ZM511.48 302.34C514.421 298.588 517.278 293.597 512.764 291.533C511.371 291.189 509.886 291.351 508.623 291.983C506.268 292.988 504.057 294.248 502.038 295.736C501.804 295.894 501.521 295.98 501.229 295.982C500.938 295.983 500.654 295.901 500.418 295.746C500.182 295.591 500.007 295.371 499.918 295.12C499.83 294.868 499.832 294.598 499.925 294.347C501.022 291.766 501.502 289.004 501.334 286.242C501.334 285.867 501.334 285.566 500.795 285.454C499.279 285.175 497.705 285.319 496.281 285.867C493.8 286.663 491.425 287.708 489.199 288.981C488.985 289.093 488.742 289.152 488.495 289.152C488.248 289.152 488.005 289.093 487.791 288.981C485.679 287.743 490.11 283.202 487.791 276.936C487.379 275.671 486.664 274.504 485.698 273.518C484.732 272.532 483.537 271.752 482.2 271.232C477.52 269.543 471.266 270.481 471.225 275.397V276.448C471.23 276.676 471.158 276.9 471.02 277.091C470.881 277.281 470.682 277.429 470.448 277.515C470.214 277.6 469.958 277.619 469.712 277.569C469.466 277.52 469.243 277.403 469.071 277.236C465.965 274.421 461.617 265.528 456.067 268.005C454.369 268.793 454.866 270.106 454.99 271.757C455.115 273.408 454.452 275.21 452.795 275.022C450.145 274.722 434.366 260.987 435.857 269.731C436.193 271.362 436.749 272.95 437.513 274.459C437.603 274.688 437.605 274.938 437.52 275.168C437.435 275.399 437.266 275.597 437.042 275.731C436.818 275.865 436.551 275.927 436.284 275.907C436.016 275.887 435.764 275.787 435.567 275.622C432.129 272.132 421.61 263.126 418.214 266.203C417.178 267.142 417.965 271.119 418.462 272.47C418.767 272.942 419.128 273.383 419.539 273.784C420.285 274.797 419.912 275.922 418.545 275.922C413.948 275.922 409.144 268.042 403.553 268.042C398.875 267.739 394.228 268.934 390.424 271.419C390.01 271.795 388.271 275.547 386.614 274.009C383.508 271.232 388.271 265.678 390.756 261.363C391.625 259.787 393.075 256.747 391.253 256.034C389.694 255.643 388.037 255.722 386.531 256.259C385.786 257.648 384.461 260.012 383.053 258.886C381.644 257.76 382.059 256.109 385.041 254.833C385.439 253.97 385.757 253.079 385.993 252.169C385.993 251.644 386.324 250.293 385.993 249.993C383.9 248.85 381.473 248.314 379.035 248.454C380.899 253.783 388.064 275.922 383.757 279.863C383.181 280.302 382.436 280.518 381.686 280.463C375.556 280.2 345.862 267.629 340.271 265.453C339.111 264.965 339.774 265.19 335.55 250.443C331.698 259.599 331.16 262.188 329.213 262.226C327.267 262.263 328.261 259.336 306.104 248.604C289.041 240.349 269.824 233.294 269.824 233.294C269.566 233.205 269.34 233.052 269.172 232.853C269.004 232.654 268.9 232.417 268.872 232.168L268.002 216.708C255.578 219.747 255.163 219.86 254.459 219.447C244.083 213.646 234.552 206.687 226.09 198.733C221.949 196.632 215.529 194.155 212.382 195.581C210.27 196.557 214.577 203.086 216.192 204.887C216.291 205.044 216.33 205.226 216.303 205.406C216.276 205.585 216.185 205.751 216.044 205.879C215.903 206.007 215.72 206.089 215.522 206.113C215.324 206.138 215.123 206.102 214.95 206.013C212.92 204.662 203.353 198.958 199.129 200.872C194.905 202.786 203.478 207.814 200.868 209.39C200.082 209.84 199.088 209.203 198.218 208.677C196.414 207.699 194.357 207.168 192.254 207.139C189.852 230.029 186.87 258.661 183.681 289.169C190.663 290.743 197.072 293.937 202.277 298.438C208.918 297.893 215.606 298.847 221.742 301.215C223.895 302.04 223.398 303.879 221.245 303.841C221.742 303.841 220.002 303.841 217.103 304.517C216.026 304.217 445.134 302.528 511.48 302.34ZM195.36 381.519C195.36 381.519 193.994 382.157 192.213 383.095C199.667 387.598 216.068 395.666 217.6 398.405C217.789 398.799 217.826 399.238 217.706 399.653C217.586 400.069 217.315 400.435 216.938 400.694C215.902 401.745 216.151 400.957 216.316 402.42V408.912C216.729 412.275 217.506 415.593 218.635 418.819C220.527 419.231 222.515 419.086 224.309 418.406C234.456 414.391 240.254 407.674 239.177 397.617C234.042 398.292 231.101 399.08 230.107 399.156C229.113 399.231 226.421 397.579 229.569 396.491C231.474 395.853 231.391 375.252 228.948 376.228C228.797 376.255 228.641 376.234 228.506 376.168C228.371 376.103 228.265 375.997 228.207 375.868C228.148 375.74 228.14 375.597 228.185 375.464C228.229 375.331 228.323 375.216 228.451 375.139C224.309 369.435 224.309 369.548 224.309 368.76C224.367 368.569 224.471 368.392 224.614 368.242C224.758 368.093 224.937 367.975 225.138 367.897C226.707 367.13 228.032 366.008 228.982 364.64C229.933 363.273 230.477 361.706 230.563 360.092C230.763 357.66 230.454 355.215 229.652 352.887C228.07 353.557 226.334 353.872 224.59 353.807C222.846 353.741 221.145 353.297 219.629 352.512C220.499 354.125 221.452 356.039 220.209 357.39C219.245 358.291 217.98 358.878 216.609 359.061C215.239 359.245 213.841 359.013 212.63 358.403C212.554 358.376 212.485 358.336 212.426 358.284C212.367 358.233 212.32 358.171 212.287 358.103C212.254 358.035 212.237 357.962 212.235 357.888C212.234 357.814 212.248 357.74 212.278 357.671C212.308 357.602 212.353 357.539 212.41 357.486C212.466 357.433 212.534 357.39 212.609 357.36C212.684 357.331 212.765 357.315 212.847 357.313C212.928 357.312 213.01 357.325 213.086 357.352C214.76 357.411 216.399 356.902 217.683 355.926C216.53 353.327 215.145 350.817 213.541 348.421C209.11 350.41 209.4 348.421 209.897 350.448C211.098 359.829 199.295 362.831 192.13 356.602C190.942 355.47 189.913 354.21 189.065 352.849C187.878 353.069 186.646 352.991 185.504 352.624C183.226 353.938 183.516 353.187 183.64 354.313C183.722 354.845 183.651 355.387 183.433 355.887C183.215 356.387 182.858 356.827 182.397 357.165C182.312 357.599 182.312 358.044 182.397 358.478C188.527 361.593 188.154 359.754 189.189 362.568C191.384 363.619 191.302 365.758 191.84 367.672C192.089 368.535 194.739 377.053 195.774 380.13C195.859 380.367 195.864 380.622 195.791 380.862C195.717 381.102 195.567 381.317 195.36 381.481V381.519ZM214.535 402.758C212.248 404.277 210.633 406.486 209.98 408.987C209.4 411.614 209.98 412.252 209.4 413.152C209.198 413.433 208.91 413.655 208.572 413.79C210.896 415.597 213.507 417.077 216.316 418.181C215.454 415.211 214.831 412.189 214.453 409.137C214.287 407.786 214.66 404.972 214.535 402.72V402.758ZM214.535 399.005C209.897 395.253 191.053 384.708 188.734 381.856C185.793 383.47 181.362 385.947 178.587 387.748C186.87 393.752 197.597 401.482 206.874 409.325C207.453 404.146 210.518 402.458 214.37 399.118L214.535 399.005ZM302.376 473.08C290.029 472.57 277.723 471.43 265.517 469.665C260.091 478.337 253.359 486.281 245.514 493.269C237.33 500.106 228.025 505.752 217.931 510.005C224.019 519.762 234.042 532.858 244.271 539.2L272.185 525.053C275.043 516.309 276.078 508.579 279.184 500.136C281.001 494.347 284.591 489.143 289.538 485.126C293.141 481.674 301.962 473.868 302.542 473.155C303.122 472.442 302.583 473.268 302.376 473.08ZM266.47 466.964C275.332 468.164 299.187 470.716 307.388 470.078C305.75 455.757 305.127 441.355 305.524 426.962C299.312 431.802 290.904 438.219 282.829 444.674C286.292 445.644 289.296 447.639 291.36 450.34C291.619 450.814 291.755 451.335 291.756 451.863C291.758 452.392 291.626 452.914 291.37 453.389C291.114 453.864 290.741 454.279 290.279 454.603C289.818 454.927 289.281 455.15 288.709 455.256C288.119 455.333 287.519 455.333 286.929 455.256C287.106 455.79 287.15 456.354 287.057 456.906C286.964 457.458 286.736 457.984 286.39 458.445C285.782 459.31 284.902 459.989 283.864 460.397C283.412 460.473 282.949 460.473 282.497 460.397C282.599 460.766 282.599 461.153 282.497 461.523C281.669 467.677 275.001 464.412 268.623 462.348C265.476 461.372 265.517 461.523 263.571 462.948L266.47 466.964ZM233.006 395.666C237.621 394.599 242.367 394.07 247.129 394.09C249.034 394.09 248.827 394.502 248.744 394.09C248.04 389.136 245.265 375.327 241.538 371.574L230.356 375.327C233.089 378.366 234.29 390.525 233.089 395.816L233.006 395.666ZM233.006 373.15C234.332 372.55 240.213 369.961 241.289 369.398C242.366 368.835 242.822 369.398 243.691 370.411L245.058 370.186L233.628 358.703C233.707 360.616 233.309 362.521 232.463 364.275C231.616 366.03 230.344 367.588 228.741 368.835L233.006 373.15ZM245.058 371.875C247.656 376.094 249.475 380.67 250.442 385.421C251.399 389.126 252.063 392.888 252.43 396.679C252.441 396.872 252.409 397.066 252.335 397.248C252.261 397.429 252.147 397.596 251.999 397.736C251.852 397.876 251.675 397.988 251.478 398.065C251.282 398.141 251.07 398.18 250.856 398.18C248.311 396.97 245.369 396.637 242.573 397.242C243.066 401.067 242.467 404.943 240.834 408.499C253.815 420.491 267.488 431.852 281.793 442.535L305.772 424.935C305.772 420.507 305.772 416.455 306.104 413.19C306.476 404.709 306.725 404.634 307.885 403.433C311.088 400.508 314.536 397.81 318.197 395.365C297.614 384.22 269.327 368.873 244.851 371.95L245.058 371.875ZM265.973 459.946C268.747 459.946 275.374 462.836 278.894 462.761C279.64 462.761 279.847 461.935 279.888 461.26C277.279 458.408 270.238 457.507 270.238 455.218C270.238 455.218 270.943 453.38 272.516 454.017C275.872 455.534 279.363 456.789 282.953 457.77C283.266 457.538 283.532 457.259 283.74 456.944C284.071 456.382 283.74 456.269 283.74 456.119C280.64 454.208 277.25 452.717 273.676 451.691C273.336 451.519 273.076 451.241 272.944 450.909C272.812 450.576 272.817 450.212 272.958 449.883C273.099 449.554 273.367 449.282 273.712 449.118C274.057 448.953 274.456 448.908 274.835 448.989C279.391 450.378 279.557 450.903 283.118 451.841C284.237 452.104 288.171 453.154 288.668 452.216C289.165 451.278 286.432 449.402 285.272 448.801C280.664 446.431 275.525 445.033 270.238 444.711C265.6 444.711 265.144 444.974 255.453 451.203L262.784 461.71C263.629 460.847 264.739 460.233 265.973 459.946ZM264.275 443.323C268.655 442.07 273.354 442.07 277.734 443.323C264.304 433.108 251.567 422.168 239.591 410.563C236.348 415.367 231.44 419.062 225.635 421.07C223.861 421.764 221.929 422.06 220.002 421.933C226.173 434.167 244.188 440.996 248.371 447.038L250.069 446.1C250.4 445.915 250.798 445.855 251.177 445.932C251.556 446.01 251.886 446.218 252.099 446.512L254.501 449.965C258.187 447.263 262.742 444.111 264.275 443.36V443.323ZM189.728 337.351C189.728 338.627 190.846 339.453 190.805 341.104C190.813 341.726 190.681 342.342 190.418 342.917C190.154 343.491 189.765 344.01 189.272 344.444C188.665 344.875 188.013 345.252 187.326 345.569C187.01 345.669 186.726 345.836 186.497 346.057C187.062 347.257 187.452 348.519 187.657 349.81H187.988C187.284 347.821 187.699 346.057 189.107 345.457C194.558 343.195 200.576 342.289 206.542 342.83C207.619 342.83 208.944 345.945 209.317 346.995C210.605 346.28 212 345.737 213.459 345.382C212.713 343.581 213.003 342.08 214.245 341.329C217.309 339.693 220.729 338.681 224.268 338.365L223.398 336.338C222.359 335.932 221.479 335.253 220.872 334.387C219.919 333.224 218.263 330.297 217.724 330.634C216.482 330.972 215.074 333.111 211.885 330.859C210.79 329.921 209.779 328.904 208.862 327.82C207.609 328.553 206.309 329.217 204.969 329.809C202.359 330.334 200.496 328.12 199.419 327.782C198.881 328.383 197.969 329.509 197.721 329.734C197.039 330.188 196.252 330.496 195.42 330.632C194.587 330.769 193.731 330.731 192.917 330.522C193.745 334.199 191.674 334.8 189.769 337.389L189.728 337.351ZM182.812 311.534C190.859 308.432 199.169 305.922 207.661 304.029C209.359 303.691 221.079 302.49 221.493 302.415L220.996 302.153C214.099 299.713 206.55 299.216 199.336 300.727C184.22 304.479 159.164 315.061 150.467 326.994C147.393 330.763 144.925 334.907 143.136 339.303C147.159 336.247 150.924 332.923 154.401 329.358C162.333 321.614 172.046 315.542 182.853 311.572L182.812 311.534ZM150.674 316.187C150.674 317.876 151.129 319.527 151.336 321.178C161.814 310.708 186.829 300.652 200.206 298.363C185.586 287.856 169.269 288.644 159.661 295.698C156.491 298.24 154.029 301.424 152.475 304.991C150.92 308.558 150.317 312.407 150.715 316.225L150.674 316.187ZM274.007 306.468C212.258 306.468 217.807 306.468 218.263 306.843H220.251C222.603 307.305 224.718 308.467 226.256 310.146C228.451 313.223 227.83 313.11 227.622 315.662C228.411 316.32 229.106 317.063 229.693 317.876C230.405 318.848 230.805 319.98 230.849 321.146C230.893 322.312 230.579 323.466 229.942 324.48C230.315 325.306 231.101 326.131 231.433 327.032C231.628 327.477 231.681 327.963 231.586 328.434C231.491 328.905 231.251 329.343 230.894 329.696C230.607 329.905 230.303 330.093 229.983 330.259C229.836 330.315 229.707 330.406 229.61 330.522C229.818 331.272 230.356 331.835 230.522 332.586C230.582 333.122 230.488 333.663 230.248 334.156C230.009 334.65 229.632 335.078 229.155 335.4C228.248 336.011 227.277 336.539 226.256 336.976L226.753 338.177H229.776C230.604 338.177 231.805 340.053 232.178 340.729C233.325 342.284 233.937 344.112 233.937 345.982C233.937 347.852 233.325 349.681 232.178 351.236C232.826 352.903 233.284 354.625 233.545 356.377L247.502 370.186C259.355 369.759 271.172 371.627 282.166 375.665C295.592 380.591 308.486 386.634 320.682 393.714C325.693 390.262 331.491 386.434 336.544 383.245C299.933 374.239 247.626 327.82 274.007 306.468ZM375.971 361.593C362.387 368.16 317.286 397.692 310.121 405.009C309.334 405.873 309.251 405.009 308.92 413.34C308.423 426.324 308.299 456.306 310.452 469.028C311.653 468.164 374.935 423.097 378.58 420.695C378.828 414.916 377.213 367.747 375.971 361.593ZM519.266 500.436C519.556 500.436 519.763 500.436 519.887 500.211C520.012 499.986 519.887 498.71 519.308 497.922C516.988 494.169 511.687 491.655 504.315 484.976C502.582 483.564 501.174 481.855 500.174 479.947C499.636 478.071 498.724 470.116 498.476 467.864H474.414C475.778 474.431 477.506 480.931 479.591 487.34C485.472 489.967 512.723 501.75 519.266 500.436ZM486.134 505.24C489.696 505.24 511.77 505.69 515.125 505.24C515.272 504.508 515.272 503.757 515.125 503.025C506.884 501.312 498.872 498.795 491.228 495.52H478.804C481.289 498.522 483.649 501.825 486.01 505.24H486.134ZM455.322 466.026C463.596 474.744 471.154 484 477.934 493.719L488.081 493.907C482.573 491.58 478.473 489.629 477.934 489.404C477.486 489.143 477.139 488.763 476.94 488.316C475 481.526 473.534 474.633 472.55 467.677C467.332 467.677 465.468 467.677 464.971 466.476C463.646 463.849 439.46 422.796 435.567 416.305C434.241 416.305 436.851 414.278 417.054 437.619C397.341 432.891 379.491 432.628 352.488 442.385L343.294 448.989C360.689 441.897 379.532 436.193 398.79 437.169C406.914 437.555 414.968 438.738 422.811 440.696C435.318 446.775 445.423 456.494 455.197 466.026H455.322ZM442.027 543.966C427.201 529.256 414.404 515.409 403.843 505.727H381.81C397.465 521.676 413.12 537.699 426.787 551.696C431.975 549.367 437.021 546.787 441.903 543.966H442.027ZM463.149 610.048C467.323 610.166 471.388 608.822 474.497 606.295C469.941 599.653 420.947 549.707 377.793 505.502H361.227C449.441 596.388 462.031 609.41 463.149 610.048ZM408.647 558.15C393.696 542.577 376.302 524.565 357.997 505.615C352.116 505.615 348.016 505.84 346.4 506.065C333.396 527.83 305.275 536.085 278.273 539.312L256.116 550.57C268.482 556.783 281.883 561.131 295.791 563.441C331.574 569.783 380.319 566.706 408.647 558.15ZM255.412 551.621L283.118 582.654L312.813 567.644C292.666 565.938 273.125 560.483 255.412 551.621ZM336.626 569.07C329.462 569.07 322.794 568.62 316.54 568.057L284.858 584.418L290.656 590.91L336.626 569.07ZM224.806 615.376C225.598 617.19 226.642 618.905 227.912 620.48C231.474 618.866 252.347 608.997 275.581 597.964L270.114 591.96L224.806 615.376ZM328.344 650.575C331.219 649.897 333.829 648.507 335.881 646.56C335.633 646.222 298.608 604.606 252.057 552.446L242.449 557.287C302.418 622.994 325.527 648.436 328.344 650.575ZM95.509 618.191C96.8153 620.801 98.3527 623.31 100.106 625.696C112.531 620.217 336.171 505.615 345.282 503.701C349.838 502.65 398.252 503.701 403.553 503.701L393.945 494.77C388.934 494.77 342.052 494.77 338.242 495.671C325.817 498.973 97.0413 618.191 95.5504 618.191H95.509ZM231.723 545.542L241.372 540.738C231.101 533.871 221.369 521.113 215.157 511.093C211.327 512.434 207.338 513.366 203.271 513.87C202.691 513.908 201.49 512.482 231.764 545.542H231.723ZM154.401 485.839C158.447 493.769 164.988 500.44 173.203 505.014C198.052 518.749 221.534 508.767 243.609 491.13C251.397 484.161 258.074 476.242 263.446 467.602L250.566 449.027C212.009 469.703 215.985 466.964 206.17 472.105C205.383 472.48 204.513 472.893 202.442 473.981L198.094 476.345C195.112 477.921 195.899 478.296 194.988 478.334C193.372 478.334 194.988 475.482 197.514 473.531C200.735 471.424 204.279 469.755 208.033 468.577C200.392 456.759 192.013 445.345 182.936 434.392C182.831 434.272 182.784 434.12 182.803 433.969C182.823 433.818 182.908 433.679 183.039 433.585C183.171 433.49 183.339 433.447 183.506 433.465C183.673 433.482 183.825 433.559 183.93 433.679C193.373 444.53 202.112 455.87 210.104 467.639C215.198 465.35 241.497 450.865 246.383 448.164C242.532 442.497 223.647 435.142 217.766 421.521C208.282 419.419 198.549 409.062 192.917 401.895L177.179 389.361C169.395 394.268 163.157 400.929 159.081 408.687C151.977 422.844 148.143 438.168 147.816 453.717C147.117 464.749 149.377 475.77 154.401 485.839ZM68.6721 346.658C65.4418 346.658 58.3598 348.646 57.2002 350.673C56.9103 351.086 63.7852 360.092 145.124 450.152C145.421 444.995 146.141 439.865 147.278 434.805C103.875 386.172 69.8731 348.009 68.6307 346.658H68.6721ZM81.0966 358.516C94.8049 373.526 119.281 400.469 147.899 432.028C150.057 423.758 153.109 415.701 157.01 407.974C161.276 400.109 167.709 393.375 175.688 388.423C175.518 388.196 175.449 387.919 175.495 387.647C175.542 387.376 175.699 387.13 175.937 386.96C179.25 384.971 185.131 382.269 188.361 380.656C188.449 380.612 188.547 380.589 188.647 380.587C188.747 380.586 188.846 380.606 188.935 380.647C189.025 380.687 189.102 380.747 189.161 380.82C189.22 380.894 189.258 380.979 189.272 381.068L192.586 379.417L189.894 371.912C188.914 372.532 187.777 372.916 186.589 373.027C185.4 373.139 184.2 372.975 183.101 372.55C182.6 372.222 182.154 371.83 181.776 371.387C180.611 372.036 179.286 372.413 177.92 372.486C176.554 372.558 175.19 372.322 173.949 371.8C172.204 370.797 170.777 369.4 169.807 367.747C168.896 366.546 168.731 366.321 166.328 366.358C164.005 366.688 161.63 366.19 159.702 364.97C157.557 362.957 156.367 360.263 156.389 357.465C154.266 356.676 152.466 355.311 151.235 353.557C150.003 351.803 149.402 349.747 149.514 347.671C134.108 349.735 96.4201 354.876 81.0966 358.628V358.516ZM143.219 207.964C142.349 206.125 140.403 206.651 138.415 207.551C136.427 208.452 136.385 210.103 136.054 211.979C134.232 221.623 122.139 207.702 118.66 212.467C117.06 214.877 116.514 217.741 117.128 220.498C117.934 221.8 118.833 223.054 119.82 224.25C119.998 224.445 120.096 224.691 120.096 224.944C120.096 225.198 119.998 225.443 119.82 225.639C116.589 228.566 107.644 223.612 104.247 226.727C102.882 228.21 102.019 230.019 101.761 231.937C101.504 233.854 101.864 235.798 102.798 237.534C103.999 240.273 106.691 242.675 106.028 243.951C105.366 245.227 104.579 244.889 103.626 243.951C102.674 243.013 93.0241 240.461 91.2018 241.474C90.6881 241.852 90.2704 242.326 89.9774 242.864C89.6843 243.401 89.5228 243.99 89.5038 244.589C89.1311 247.891 91.0776 248.642 92.1957 250.105C93.314 251.569 92.6514 252.694 91.0776 252.694C85.8593 252.694 79.5228 246.052 74.5117 248.379C73.2278 248.979 74.5116 252.544 75.5884 253.97C76.6652 255.396 77.5764 255.921 77.1622 257.01C76.3339 259.186 71.6954 257.01 69.459 255.921C64.862 253.708 60.5962 251.381 57.6971 255.321C56.1284 257.7 55.5828 260.519 56.1648 263.239C56.3719 263.989 58.3599 266.091 58.5255 266.991C58.8568 268.605 56.7446 268.83 55.0052 268.53C51.4021 267.93 44.5687 264.777 44.4444 266.729C44.4444 269.468 49.3314 275.697 49.3314 277.236C49.2903 277.587 49.1065 277.913 48.8157 278.148C48.5249 278.384 48.1478 278.514 47.7576 278.512C47.3434 278.512 37.8594 277.799 37.2796 277.949C30.7775 279.412 37.5281 286.88 34.4634 289.657C32.4755 291.495 28.9138 289.657 25.8906 288.794C25.5592 288.794 24.5239 288.493 24.3582 288.794C23.24 290.858 28.9553 292.546 31.2745 293.709C33.5937 294.873 33.5109 297.049 32.0199 297.462C31.3057 297.555 30.5805 297.555 29.8663 297.462C25.7249 298.7 25.1451 302.978 25.2693 306.918C31.1088 306.656 110.625 304.217 110.915 304.217C119.645 274.24 130.589 244.828 143.674 216.182C144.037 213.439 143.883 210.66 143.219 207.964ZM106.235 331.798C114.804 332.674 123.308 334.002 131.706 335.775C134.108 336.338 136.22 336.976 137.959 337.464C138.124 337.494 138.269 337.582 138.362 337.708C138.455 337.835 138.489 337.99 138.456 338.139C138.423 338.289 138.326 338.42 138.186 338.504C138.047 338.589 137.876 338.62 137.711 338.59L133.818 338.327C126.907 337.745 120.054 336.691 113.317 335.175C110.82 334.537 108.359 333.786 105.946 332.923C104.234 339.303 102.605 345.845 101.059 352.549C107.892 351.498 141.397 346.958 150.135 345.87C150.188 345.192 150.479 344.548 150.964 344.031C149.989 342.301 149.238 340.476 148.727 338.59C147.223 339.997 145.557 341.255 143.757 342.342C141.894 343.055 139.119 341.704 140.32 337.802C142.44 333.058 145.224 328.581 148.603 324.48C148.396 321.891 147.899 319.339 147.568 316.637C146.966 311.241 148.239 305.809 151.209 301.1C154.179 296.391 158.697 292.64 164.133 290.37C169.126 288.671 174.483 288.042 179.788 288.531C180.782 279.487 181.776 270.181 182.812 261.1C181.124 261.118 179.437 261.042 177.759 260.875C169.393 259.935 161.151 258.238 153.159 255.809C152.994 255.779 152.849 255.691 152.756 255.564C152.662 255.438 152.629 255.283 152.662 255.133C152.695 254.984 152.792 254.853 152.931 254.768C153.071 254.684 153.242 254.653 153.407 254.683C163.413 255.422 173.309 257.095 182.936 259.674C189.811 197.682 192.503 180.045 193.869 156.254C192.278 152.514 191.221 148.605 190.722 144.622C184.378 153.062 178.836 161.975 174.156 171.264C173.866 171.79 173.576 171.715 170.47 172.503C141.562 219.785 120.399 277.911 106.235 331.873V331.798ZM172.499 169.876C177.512 160.207 183.56 151.007 190.556 142.408C190.449 140.928 190.533 139.442 190.805 137.98C190.868 137.798 190.981 137.634 191.133 137.503C191.285 137.371 191.471 137.277 191.674 137.229C179.54 135.128 147.94 130.024 135.516 130.962C80.7653 135.015 43.2848 148.186 14.2944 189.952C5.05884 203.198 8.33057 226.502 15.2469 238.285C15.9019 239.45 16.7388 240.525 17.7318 241.474C22.2874 237.722 45.4384 215.207 49.7455 211.229L51.5264 197.607C51.5623 197.396 51.6487 197.195 51.7795 197.018C51.9103 196.84 52.0824 196.691 52.2836 196.58C52.4849 196.469 52.7104 196.4 52.9445 196.376C53.1785 196.353 53.4153 196.376 53.6385 196.444L66.063 200.797L111.04 184.098C116.796 170.064 116.382 170.401 117.417 170.214C118.453 170.026 117.956 169.914 129.179 180.271L172.499 169.876Z" fill="#E4E4E4" fill-opacity="0.5"/>
</g>
</svg>
